<?xml version="1.0" encoding="utf-8"?>
<!-- Generator: Adobe Illustrator 24.1.3, SVG Export Plug-In . SVG Version: 6.00 Build 0)  -->
<svg version="1.1" id="Calque_1" xmlns="http://www.w3.org/2000/svg" xmlns:xlink="http://www.w3.org/1999/xlink" x="0px" y="0px"
	 viewBox="0 0 238 486" style="enable-background:new 0 0 238 486;" xml:space="preserve">
<style type="text/css">
	.st0{fill:#FFFFFF;}
	.st1{fill:url(#Rectangle_5_1_);}
	.st2{fill:#F7F7F7;}
	.st3{fill:none;}
	.st4{fill:none;stroke:#FFFFFF;stroke-width:5;}
	.st5{fill:#F7F8F9;}
	.st6{font-family:'Lato-Regular';}
	.st7{font-size:36px;}
</style>
<g id="Phone" transform="translate(-1256 -227)">
	<g>
		<g id="iphone" transform="translate(1256 227)">
			<g transform="matrix(1, 0, 0, 1, 0, 0)">
				<path id="Rectangle_4-2" class="st0" d="M44,0h150c24.3,0,44,19.7,44,44v398c0,24.3-19.7,44-44,44H44c-24.3,0-44-19.7-44-44V44
					C0,19.7,19.7,0,44,0z"/>
			</g>
			
				<linearGradient id="Rectangle_5_1_" gradientUnits="userSpaceOnUse" x1="-835.4808" y1="783.1957" x2="-835.4808" y2="782.1957" gradientTransform="matrix(209 0 0 -368 174735 288271)">
				<stop  offset="0" style="stop-color:#FFA8E1"/>
				<stop  offset="1" style="stop-color:#00A7FF"/>
			</linearGradient>
			<rect id="Rectangle_5" x="15" y="55" class="st1" width="209" height="368"/>
			<path id="Rectangle_6" class="st2" d="M104,30h31c1.7,0,3,1.3,3,3l0,0c0,1.7-1.3,3-3,3h-31c-1.7,0-3-1.3-3-3l0,0
				C101,31.3,102.3,30,104,30z"/>
			<circle id="Ellipse_3" class="st2" cx="119.5" cy="453.5" r="16.5"/>
		</g>
	</g>
	<g id="app-icon">
		<g transform="matrix(1, 0, 0, 1, 1256, 227)">
			<path id="Union_9-2" class="st0" d="M105.6,176c-0.1,0.2-0.1,0.4-0.1,0.4s-11.1-17.9,0.9-29.9c5.9-6,5.8,1.3,4.1,10.2
				c2.3-3.3,5.6-5.7,9.5-6.9c9.2-3,3.3,5.9-3.5,14.2c4.4-1.9,10.3-1.9,17.7,2.6c8.7,5.2,4.9,7.7-2.5,8.9
				C122.4,176.8,107.4,176.1,105.6,176z"/>
		</g>
		<g transform="matrix(1, 0, 0, 1, 1256, 227)">
			<g id="Ellipse_6-2" transform="translate(91 133)">
				<ellipse class="st3" cx="27.8" cy="27.8" rx="27.8" ry="27.8"/>
				<ellipse class="st4" cx="27.8" cy="27.8" rx="25.2" ry="25.2"/>
			</g>
		</g>
	</g>
	<text transform="matrix(1 0 0 1 1305.4298 467.7942)" class="st5 st6 st7">Wassines</text>
</g>
</svg>
