<svg xmlns="http://www.w3.org/2000/svg" xmlns:xlink="http://www.w3.org/1999/xlink" viewBox="0 0 238 486"><defs><style>.cls-1{fill:#fff;}.cls-2{fill:url(#Dégradé_sans_nom);}.cls-3{fill:#f7f7f7;}.cls-4,.cls-5{fill:none;}.cls-5{stroke:#fff;stroke-width:5px;}.cls-6{font-size:36px;fill:#f7f8f9;font-family:Lato-Regular, Lato;}.cls-7{letter-spacing:-0.06em;}</style><linearGradient id="Dégradé_sans_nom" x1="-835.48" y1="783.2" x2="-835.48" y2="782.2" gradientTransform="matrix(209, 0, 0, -368, 174735, 288271)" gradientUnits="userSpaceOnUse"><stop offset="0" stop-color="#ffa8e1"/><stop offset="1" stop-color="#00a7ff"/></linearGradient></defs><g id="Calque_2" data-name="Calque 2"><g id="Calque_1-2" data-name="Calque 1"><g id="Phone"><g id="iphone"><rect id="Rectangle_4-2" data-name="Rectangle 4-2" class="cls-1" width="238" height="486" rx="44"/><rect id="Rectangle_5" data-name="Rectangle 5" class="cls-2" x="15" y="55" width="209" height="368"/><path id="Rectangle_6" data-name="Rectangle 6" class="cls-3" d="M104,30h31a3,3,0,0,1,3,3h0a3,3,0,0,1-3,3H104a3,3,0,0,1-3-3h0A3,3,0,0,1,104,30Z"/><circle id="Ellipse_3" data-name="Ellipse 3" class="cls-3" cx="119.5" cy="453.5" r="16.5"/></g><g id="app-icon"><path id="Union_9-2" data-name="Union 9-2" class="cls-1" d="M105.62,176c-.07.23-.1.36-.1.36s-11.13-17.88.85-29.93c5.94-6,5.78,1.33,4.11,10.21a18.33,18.33,0,0,1,9.49-6.94c9.17-3,3.3,5.94-3.46,14.17,4.42-1.87,10.27-1.91,17.75,2.55,8.74,5.22,4.87,7.73-2.48,8.89C122.42,176.8,107.42,176.1,105.62,176Z"/><g id="Ellipse_6-2" data-name="Ellipse 6-2"><circle class="cls-4" cx="118.75" cy="160.75" r="27.75"/><circle class="cls-5" cx="118.75" cy="160.75" r="25.25"/></g></g><text class="cls-6" transform="translate(49.43 240.79)"><tspan class="cls-7">W</tspan><tspan x="35.24" y="0">assines</tspan></text></g></g></g></svg>